<svg width="514pt" height="332pt" viewBox="0.00 0.00 514.00 332.00" xmlns="http://www.w3.org/2000/svg" xmlns:xlink="http://www.w3.org/1999/xlink">
<g id="graph0" class="graph" transform="scale(1 1) rotate(0) translate(4 328)">
<polygon fill="white" stroke="none" points="-4,4 -4,-328 510.27,-328 510.27,4 -4,4"/>
<!-- paká -->
<g id="node1" class="node">
<title>paká</title>
<ellipse fill="none" stroke="black" cx="241.18" cy="-306" rx="29.81" ry="18"/>
<text xml:space="preserve" text-anchor="middle" x="241.18" y="-301.8" font-family="Times,serif" font-size="14.00">paká</text>
</g>
<!-- páká -->
<g id="node2" class="node">
<title>páká</title>
<ellipse fill="none" stroke="black" cx="117.18" cy="-234" rx="30.35" ry="18"/>
<text xml:space="preserve" text-anchor="middle" x="117.18" y="-229.8" font-family="Times,serif" font-size="14.00">páká</text>
</g>
<!-- paká&#45;&#45;páká -->
<g id="edge1" class="edge">
<title>paká--páká</title>
<path fill="none" stroke="black" d="M219.86,-292.97C197.15,-280.15 161.4,-259.96 138.63,-247.11"/>
</g>
<!-- paːká -->
<g id="node3" class="node">
<title>paːká</title>
<ellipse fill="lightskyblue" stroke="lightskyblue" cx="200.18" cy="-234" rx="34.64" ry="18"/>
<text xml:space="preserve" text-anchor="middle" x="200.18" y="-229.8" font-family="Times,serif" font-size="14.00">paːká</text>
</g>
<!-- paká&#45;&#45;paːká -->
<g id="edge2" class="edge">
<title>paká--paːká</title>
<path fill="none" stroke="black" d="M231.67,-288.76C225.14,-277.62 216.5,-262.87 209.92,-251.63"/>
</g>
<!-- paka -->
<g id="node4" class="node">
<title>paka</title>
<ellipse fill="none" stroke="black" cx="282.18" cy="-234" rx="29.27" ry="18"/>
<text xml:space="preserve" text-anchor="middle" x="282.18" y="-229.8" font-family="Times,serif" font-size="14.00">paka</text>
</g>
<!-- paká&#45;&#45;paka -->
<g id="edge3" class="edge">
<title>paká--paka</title>
<path fill="none" stroke="black" d="M250.69,-288.76C257.31,-277.46 266.11,-262.44 272.72,-251.15"/>
</g>
<!-- pakáː -->
<g id="node5" class="node">
<title>pakáː</title>
<ellipse fill="#cd96cd" stroke="#cd96cd" cx="372.18" cy="-234" rx="34.64" ry="18"/>
<text xml:space="preserve" text-anchor="middle" x="372.18" y="-229.8" font-family="Times,serif" font-size="14.00">pakáː</text>
</g>
<!-- paká&#45;&#45;pakáː -->
<g id="edge4" class="edge">
<title>paká--pakáː</title>
<path fill="none" stroke="black" d="M263.11,-293.28C286.85,-280.6 324.58,-260.44 348.85,-247.46"/>
</g>
<!-- páːká -->
<g id="node6" class="node">
<title>páːká</title>
<ellipse fill="lightskyblue" stroke="lightskyblue" cx="35.18" cy="-162" rx="35.18" ry="18"/>
<text xml:space="preserve" text-anchor="middle" x="35.18" y="-157.8" font-family="Times,serif" font-size="14.00">páːká</text>
</g>
<!-- páká&#45;&#45;páːká -->
<g id="edge5" class="edge">
<title>páká--páːká</title>
<path fill="none" stroke="black" d="M100.58,-218.83C86.64,-206.93 66.77,-189.97 52.6,-177.87"/>
</g>
<!-- pákáː -->
<g id="node7" class="node">
<title>pákáː</title>
<ellipse fill="#cd96cd" stroke="#cd96cd" cx="287.18" cy="-162" rx="35.18" ry="18"/>
<text xml:space="preserve" text-anchor="middle" x="287.18" y="-157.8" font-family="Times,serif" font-size="14.00">pákáː</text>
</g>
<!-- páká&#45;&#45;pákáː -->
<g id="edge6" class="edge">
<title>páká--pákáː</title>
<path fill="none" stroke="black" d="M141.06,-222.47C146.05,-220.31 151.28,-218.06 156.18,-216 191.92,-200.98 233.44,-184.32 260,-173.75"/>
</g>
<!-- páka -->
<g id="node8" class="node">
<title>páka</title>
<ellipse fill="none" stroke="black" cx="118.18" cy="-162" rx="29.81" ry="18"/>
<text xml:space="preserve" text-anchor="middle" x="118.18" y="-157.8" font-family="Times,serif" font-size="14.00">páka</text>
</g>
<!-- páká&#45;&#45;páka -->
<g id="edge7" class="edge">
<title>páká--páka</title>
<path fill="none" stroke="black" d="M117.43,-215.7C117.58,-204.85 117.78,-190.92 117.93,-180.1"/>
</g>
<!-- paːká&#45;&#45;páːká -->
<g id="edge8" class="edge">
<title>paːká--páːká</title>
<path fill="none" stroke="black" d="M174.03,-221.91C143.32,-208.88 92.64,-187.38 61.75,-174.27"/>
</g>
<!-- paːka -->
<g id="node9" class="node">
<title>paːka</title>
<ellipse fill="lightskyblue" stroke="lightskyblue" cx="200.18" cy="-162" rx="34.09" ry="18"/>
<text xml:space="preserve" text-anchor="middle" x="200.18" y="-157.8" font-family="Times,serif" font-size="14.00">paːka</text>
</g>
<!-- paːká&#45;&#45;paːka -->
<g id="edge9" class="edge">
<title>paːká--paːka</title>
<path fill="none" stroke="black" d="M200.18,-215.7C200.18,-204.85 200.18,-190.92 200.18,-180.1"/>
</g>
<!-- paːkáː -->
<g id="node10" class="node">
<title>paːkáː</title>
<ellipse fill="palevioletred" stroke="palevioletred" cx="380.18" cy="-162" rx="39.47" ry="18"/>
<text xml:space="preserve" text-anchor="middle" x="380.18" y="-157.8" font-family="Times,serif" font-size="14.00">paːkáː</text>
</g>
<!-- paːká&#45;&#45;paːkáː -->
<g id="edge10" class="edge">
<title>paːká--paːkáː</title>
<path fill="none" stroke="black" d="M227.13,-222.52C260.37,-209.59 316.69,-187.69 350.95,-174.37"/>
</g>
<!-- paka&#45;&#45;páka -->
<g id="edge11" class="edge">
<title>paka--páka</title>
<path fill="none" stroke="black" d="M258.91,-222.47C254.06,-220.3 248.96,-218.06 244.18,-216 205.74,-199.45 195.69,-196.36 157.18,-180 152.15,-177.86 146.77,-175.54 141.66,-173.32"/>
</g>
<!-- paka&#45;&#45;paːka -->
<g id="edge12" class="edge">
<title>paka--paːka</title>
<path fill="none" stroke="black" d="M265.58,-218.83C251.64,-206.93 231.77,-189.97 217.6,-177.87"/>
</g>
<!-- pakaː -->
<g id="node11" class="node">
<title>pakaː</title>
<ellipse fill="#cd96cd" stroke="#cd96cd" cx="472.18" cy="-162" rx="34.09" ry="18"/>
<text xml:space="preserve" text-anchor="middle" x="472.18" y="-157.8" font-family="Times,serif" font-size="14.00">pakaː</text>
</g>
<!-- paka&#45;&#45;pakaː -->
<g id="edge13" class="edge">
<title>paka--pakaː</title>
<path fill="none" stroke="black" d="M306.99,-223.79C313.85,-221.25 321.3,-218.51 328.18,-216 372.56,-199.81 383.92,-196.51 428.18,-180 433.7,-177.94 439.6,-175.69 445.22,-173.53"/>
</g>
<!-- pakáː&#45;&#45;pákáː -->
<g id="edge14" class="edge">
<title>pakáː--pákáː</title>
<path fill="none" stroke="black" d="M354.15,-218.15C339.73,-206.28 319.6,-189.7 305.18,-177.82"/>
</g>
<!-- pakáː&#45;&#45;paːkáː -->
<g id="edge15" class="edge">
<title>pakáː--paːkáː</title>
<path fill="none" stroke="black" d="M374.16,-215.7C375.4,-204.85 376.99,-190.92 378.22,-180.1"/>
</g>
<!-- pakáː&#45;&#45;pakaː -->
<g id="edge16" class="edge">
<title>pakáː--pakaː</title>
<path fill="none" stroke="black" d="M391.94,-219.17C409.35,-206.98 434.61,-189.3 452.12,-177.04"/>
</g>
<!-- páːka -->
<g id="node12" class="node">
<title>páːka</title>
<ellipse fill="lightskyblue" stroke="lightskyblue" cx="110.18" cy="-90" rx="34.64" ry="18"/>
<text xml:space="preserve" text-anchor="middle" x="110.18" y="-85.8" font-family="Times,serif" font-size="14.00">páːka</text>
</g>
<!-- páːká&#45;&#45;páːka -->
<g id="edge17" class="edge">
<title>páːká--páːka</title>
<path fill="none" stroke="black" d="M51.45,-145.81C64.03,-134.07 81.36,-117.89 93.94,-106.16"/>
</g>
<!-- páːkáː -->
<g id="node13" class="node">
<title>páːkáː</title>
<ellipse fill="palevioletred" stroke="palevioletred" cx="203.18" cy="-90" rx="40.01" ry="18"/>
<text xml:space="preserve" text-anchor="middle" x="203.18" y="-85.8" font-family="Times,serif" font-size="14.00">páːkáː</text>
</g>
<!-- páːká&#45;&#45;páːkáː -->
<g id="edge18" class="edge">
<title>páːká--páːkáː</title>
<path fill="none" stroke="black" d="M61.8,-149.91C92.52,-137.11 142.84,-116.14 174.43,-102.98"/>
</g>
<!-- pákáː&#45;&#45;páːkáː -->
<g id="edge21" class="edge">
<title>pákáː--páːkáː</title>
<path fill="none" stroke="black" d="M269.36,-146.15C255.3,-134.44 235.75,-118.14 221.55,-106.31"/>
</g>
<!-- pákaː -->
<g id="node14" class="node">
<title>pákaː</title>
<ellipse fill="#cd96cd" stroke="#cd96cd" cx="296.18" cy="-90" rx="34.64" ry="18"/>
<text xml:space="preserve" text-anchor="middle" x="296.18" y="-85.8" font-family="Times,serif" font-size="14.00">pákaː</text>
</g>
<!-- pákáː&#45;&#45;pákaː -->
<g id="edge22" class="edge">
<title>pákáː--pákaː</title>
<path fill="none" stroke="black" d="M289.4,-143.7C290.8,-132.85 292.59,-118.92 293.98,-108.1"/>
</g>
<!-- páka&#45;&#45;páːka -->
<g id="edge19" class="edge">
<title>páka--páːka</title>
<path fill="none" stroke="black" d="M116.2,-143.7C114.96,-132.85 113.37,-118.92 112.13,-108.1"/>
</g>
<!-- páka&#45;&#45;pákaː -->
<g id="edge20" class="edge">
<title>páka--pákaː</title>
<path fill="none" stroke="black" d="M141.61,-150.57C146.72,-148.35 152.12,-146.06 157.18,-144 199,-126.97 210.01,-124.14 252.18,-108 257.69,-105.89 263.58,-103.63 269.2,-101.46"/>
</g>
<!-- paːka&#45;&#45;páːka -->
<g id="edge23" class="edge">
<title>paːka--páːka</title>
<path fill="none" stroke="black" d="M181.53,-146.5C166.08,-134.48 144.24,-117.49 128.8,-105.49"/>
</g>
<!-- paːkaː -->
<g id="node15" class="node">
<title>paːkaː</title>
<ellipse fill="lightskyblue" stroke="lightskyblue" cx="388.18" cy="-90" rx="38.92" ry="18"/>
<text xml:space="preserve" text-anchor="middle" x="388.18" y="-85.8" font-family="Times,serif" font-size="14.00">paːkaː</text>
</g>
<!-- paːka&#45;&#45;paːkaː -->
<g id="edge24" class="edge">
<title>paːka--paːkaː</title>
<path fill="none" stroke="black" d="M226.52,-150.46C232.01,-148.3 237.78,-146.05 243.18,-144 282.76,-128.94 328.72,-112.28 358.1,-101.74"/>
</g>
<!-- paːkáː&#45;&#45;páːkáː -->
<g id="edge25" class="edge">
<title>paːkáː--páːkáː</title>
<path fill="none" stroke="black" d="M350.95,-149.44C318.16,-136.47 265.26,-115.55 232.45,-102.58"/>
</g>
<!-- paːkáː&#45;&#45;paːkaː -->
<g id="edge26" class="edge">
<title>paːkáː--paːkaː</title>
<path fill="none" stroke="black" d="M382.16,-143.7C383.4,-132.85 384.99,-118.92 386.22,-108.1"/>
</g>
<!-- pakaː&#45;&#45;pákaː -->
<g id="edge27" class="edge">
<title>pakaː--pákaː</title>
<path fill="none" stroke="black" d="M445.45,-150.37C412.37,-137.21 356.36,-114.93 323.16,-101.73"/>
</g>
<!-- pakaː&#45;&#45;paːkaː -->
<g id="edge28" class="edge">
<title>pakaː--paːkaː</title>
<path fill="none" stroke="black" d="M454.36,-146.15C440.3,-134.44 420.75,-118.14 406.55,-106.31"/>
</g>
<!-- páːkaː -->
<g id="node16" class="node">
<title>páːkaː</title>
<ellipse fill="palevioletred" stroke="palevioletred" cx="249.18" cy="-18" rx="39.47" ry="18"/>
<text xml:space="preserve" text-anchor="middle" x="249.18" y="-13.8" font-family="Times,serif" font-size="14.00">páːkaː</text>
</g>
<!-- páːka&#45;&#45;páːkaː -->
<g id="edge29" class="edge">
<title>páːka--páːkaː</title>
<path fill="none" stroke="black" d="M134.39,-76.81C159.28,-64.27 197.9,-44.83 223.36,-32"/>
</g>
<!-- páːkáː&#45;&#45;páːkaː -->
<g id="edge30" class="edge">
<title>páːkáː--páːkaː</title>
<path fill="none" stroke="black" d="M214.08,-72.41C221.41,-61.25 231.04,-46.6 238.36,-35.47"/>
</g>
<!-- pákaː&#45;&#45;páːkaː -->
<g id="edge31" class="edge">
<title>pákaː--páːkaː</title>
<path fill="none" stroke="black" d="M285.28,-72.76C277.79,-61.62 267.89,-46.87 260.35,-35.63"/>
</g>
<!-- paːkaː&#45;&#45;páːkaː -->
<g id="edge32" class="edge">
<title>paːkaː--páːkaː</title>
<path fill="none" stroke="black" d="M362.68,-76.16C337.76,-63.61 300.01,-44.6 274.98,-31.99"/>
</g>
</g>
</svg>